<svg width="20" height="20" viewBox="0 0 20 20" fill="none" xmlns="http://www.w3.org/2000/svg">
<path d="M8.15835 10.6583L3.33335 15.4917V14.1667C3.33335 13.9456 3.24556 13.7337 3.08928 13.5774C2.933 13.4211 2.72103 13.3333 2.50002 13.3333C2.27901 13.3333 2.06704 13.4211 1.91076 13.5774C1.75448 13.7337 1.66669 13.9456 1.66669 14.1667V17.5C1.668 17.6089 1.69065 17.7165 1.73335 17.8167C1.81792 18.0203 1.97973 18.1821 2.18335 18.2667C2.28354 18.3094 2.39112 18.332 2.50002 18.3333H5.83335C6.05437 18.3333 6.26633 18.2455 6.42261 18.0892C6.57889 17.933 6.66669 17.721 6.66669 17.5C6.66669 17.279 6.57889 17.067 6.42261 16.9107C6.26633 16.7545 6.05437 16.6667 5.83335 16.6667H4.50835L9.34169 11.8417C9.49861 11.6847 9.58676 11.4719 9.58676 11.25C9.58676 11.0281 9.49861 10.8152 9.34169 10.6583C9.18477 10.5014 8.97194 10.4132 8.75002 10.4132C8.5281 10.4132 8.31527 10.5014 8.15835 10.6583ZM18.2667 2.18332C18.1821 1.9797 18.0203 1.81789 17.8167 1.73332C17.7165 1.69062 17.6089 1.66797 17.5 1.66666H14.1667C13.9457 1.66666 13.7337 1.75445 13.5774 1.91073C13.4212 2.06701 13.3334 2.27898 13.3334 2.49999C13.3334 2.721 13.4212 2.93297 13.5774 3.08925C13.7337 3.24553 13.9457 3.33332 14.1667 3.33332H15.4917L10.6584 8.15832C10.5802 8.23579 10.5183 8.32796 10.4759 8.42951C10.4336 8.53106 10.4119 8.63998 10.4119 8.74999C10.4119 8.86 10.4336 8.96892 10.4759 9.07047C10.5183 9.17202 10.5802 9.26419 10.6584 9.34166C10.7358 9.41976 10.828 9.48176 10.9295 9.52407C11.0311 9.56637 11.14 9.58816 11.25 9.58816C11.36 9.58816 11.469 9.56637 11.5705 9.52407C11.6721 9.48176 11.7642 9.41976 11.8417 9.34166L16.6667 4.50832V5.83332C16.6667 6.05434 16.7545 6.2663 16.9108 6.42258C17.067 6.57886 17.279 6.66666 17.5 6.66666C17.721 6.66666 17.933 6.57886 18.0893 6.42258C18.2456 6.2663 18.3334 6.05434 18.3334 5.83332V2.49999C18.332 2.39109 18.3094 2.28351 18.2667 2.18332Z" fill="#737A91"/>
</svg>
