<svg width="11" height="12" viewBox="0 0 11 12" fill="none" xmlns="http://www.w3.org/2000/svg">
<path d="M5.524 6.702H1.548V11H0.176V0.877999H6.28V2.138H1.548V5.456H5.524V6.702ZM8.07583 11H6.56383L8.95783 7.612L6.57783 4.154H8.10383L9.83983 6.702L11.5338 4.154H13.0318L10.6518 7.612L12.9898 11H11.4638L9.75583 8.494L8.07583 11ZM19.5539 0.877999V11H18.1819V0.877999H19.5539ZM23.0063 11H21.6903V4.154H22.8803L23.0203 5.204C23.4543 4.42 24.3223 3.958 25.2883 3.958C27.0943 3.958 27.9203 5.064 27.9203 6.814V11H26.6043V7.108C26.6043 5.722 25.9603 5.162 24.9523 5.162C23.7203 5.162 23.0063 6.044 23.0063 7.374V11ZM32.487 11.168C30.499 11.168 29.295 9.684 29.295 7.598C29.295 5.498 30.513 3.958 32.543 3.958C33.593 3.958 34.475 4.42 34.937 5.26V0.695999H36.239V11H35.063L34.951 9.754C34.503 10.692 33.579 11.168 32.487 11.168ZM32.753 9.978C34.097 9.978 34.923 8.984 34.923 7.556C34.923 6.156 34.097 5.148 32.753 5.148C31.409 5.148 30.625 6.156 30.625 7.556C30.625 8.97 31.409 9.978 32.753 9.978ZM38.7815 2.53C38.3055 2.53 37.9135 2.138 37.9135 1.662C37.9135 1.172 38.3055 0.794 38.7815 0.794C39.2575 0.794 39.6495 1.172 39.6495 1.662C39.6495 2.138 39.2575 2.53 38.7815 2.53ZM38.1375 11V4.154H39.4535V11H38.1375ZM40.9161 7.584C40.9161 5.442 42.2741 3.958 44.2761 3.958C45.9981 3.958 47.2021 4.938 47.4401 6.464H46.1241C45.9001 5.596 45.2001 5.134 44.3181 5.134C43.0721 5.134 42.2181 6.086 42.2181 7.57C42.2181 9.04 43.0161 9.992 44.2621 9.992C45.2001 9.992 45.9001 9.502 46.1381 8.69H47.4541C47.1881 10.174 45.9141 11.168 44.2621 11.168C42.2461 11.168 40.9161 9.74 40.9161 7.584ZM50.8446 11.168C49.3746 11.168 48.5066 10.342 48.5066 9.096C48.5066 7.836 49.4446 7.052 51.0546 6.926L53.2106 6.758V6.562C53.2106 5.414 52.5246 5.008 51.6006 5.008C50.4946 5.008 49.8646 5.498 49.8646 6.324H48.7166C48.7166 4.896 49.8926 3.958 51.6566 3.958C53.3506 3.958 54.4986 4.854 54.4986 6.702V11H53.3786L53.2386 9.894C52.8886 10.678 51.9506 11.168 50.8446 11.168ZM51.2226 10.146C52.4686 10.146 53.2246 9.334 53.2246 8.046V7.682L51.4746 7.822C50.3126 7.934 49.8366 8.382 49.8366 9.054C49.8366 9.782 50.3686 10.146 51.2226 10.146ZM58.1438 11H56.8278V5.26H55.4838V4.154H56.8278V2.012H58.1438V4.154H59.4878V5.26H58.1438V11ZM60.1524 7.57C60.1524 5.456 61.6644 3.972 63.7224 3.972C65.7664 3.972 67.2784 5.456 67.2784 7.57C67.2784 9.684 65.7664 11.168 63.7224 11.168C61.6644 11.168 60.1524 9.684 60.1524 7.57ZM61.4824 7.57C61.4824 8.998 62.3924 9.992 63.7224 9.992C65.0384 9.992 65.9624 8.998 65.9624 7.57C65.9624 6.142 65.0384 5.148 63.7224 5.148C62.3924 5.148 61.4824 6.142 61.4824 7.57ZM72.6552 4.098V5.302H72.0672C70.8212 5.302 70.0512 6.058 70.0512 7.374V11H68.7352V4.168H69.9672L70.0512 5.204C70.3312 4.49 71.0172 4.014 71.9552 4.014C72.1932 4.014 72.3892 4.042 72.6552 4.098ZM73.3295 9.012H74.5895C74.5895 9.712 75.1215 10.132 75.9895 10.132C76.9135 10.132 77.4455 9.754 77.4455 9.124C77.4455 8.662 77.2215 8.382 76.5075 8.2L75.3035 7.92C74.0855 7.626 73.5115 7.024 73.5115 6.016C73.5115 4.756 74.5755 3.958 76.0875 3.958C77.5855 3.958 78.5655 4.798 78.5935 6.1H77.3335C77.3055 5.414 76.8435 4.98 76.0455 4.98C75.2195 4.98 74.7575 5.344 74.7575 5.974C74.7575 6.436 75.0935 6.744 75.7655 6.912L76.9695 7.206C78.1315 7.486 78.7055 8.018 78.7055 9.04C78.7055 10.342 77.5855 11.168 75.9615 11.168C74.3515 11.168 73.3295 10.314 73.3295 9.012Z" fill="#737A91"/>
</svg>
