<svg width="24" height="20" viewBox="0 0 24 20" fill="none" xmlns="http://www.w3.org/2000/svg">
<path fill-rule="evenodd" clip-rule="evenodd" d="M0.800049 2.00002C0.800049 1.11637 1.51639 0.400024 2.40005 0.400024H21.6C22.4837 0.400024 23.2001 1.11637 23.2001 2.00002C23.2001 2.88368 22.4837 3.60002 21.6 3.60002H2.40005C1.51639 3.60002 0.800049 2.88368 0.800049 2.00002Z" fill="#737A91"/>
<path fill-rule="evenodd" clip-rule="evenodd" d="M0.800049 10C0.800049 9.11637 1.51639 8.40002 2.40005 8.40002H12C12.8837 8.40002 13.6 9.11637 13.6 10C13.6 10.8837 12.8837 11.6 12 11.6H2.40005C1.51639 11.6 0.800049 10.8837 0.800049 10Z" fill="#737A91"/>
<path fill-rule="evenodd" clip-rule="evenodd" d="M0.800049 18C0.800049 17.1164 1.51639 16.4 2.40005 16.4H21.6C22.4837 16.4 23.2001 17.1164 23.2001 18C23.2001 18.8837 22.4837 19.6 21.6 19.6H2.40005C1.51639 19.6 0.800049 18.8837 0.800049 18Z" fill="#737A91"/>
</svg>
